<svg width="24px" height="24px" viewBox="0 0 24 24" version="1.1" xmlns="http://www.w3.org/2000/svg" xmlns:xlink="http://www.w3.org/1999/xlink">
    <defs>
        <circle id="path-1" cx="12" cy="12" r="12"></circle>
    </defs>
    <g id="1.-Atoms-/-Icons-/-Language-Flags-/-English" stroke="none" stroke-width="1" fill="none" fill-rule="evenodd">
        <g id="united-kingdom" transform="translate(12.000000, 12.000000) scale(-1, 1) translate(-12.000000, -12.000000) ">
            <mask id="mask-2" fill="white">
                <use xlink:href="#path-1"></use>
            </mask>
            <use id="Oval" fill="#F8F8F8" xlink:href="#path-1"></use>
            <circle id="Oval-Copy" fill="#F8F8F8" mask="url(#mask-2)" cx="12" cy="12" r="12"></circle>
            <path d="M2.480625,4.69415625 C1.53801562,5.92054687 0.82725,7.3340625 0.413390625,8.86964062 L6.65610937,8.86964062 L2.480625,4.69415625 Z" id="Path" fill="#325CA7" mask="url(#mask-2)"></path>
            <path d="M23.5866094,8.86964062 C23.17275,7.33410937 22.4619375,5.92059375 21.519375,4.69420312 L17.3439844,8.86964062 L23.5866094,8.86964062 Z" id="Path" fill="#325CA7" mask="url(#mask-2)"></path>
            <path d="M0.413390625,15.1305 C0.827296875,16.6660312 1.5380625,18.0795469 2.480625,19.3058906 L6.65596875,15.1305 L0.413390625,15.1305 L0.413390625,15.1305 Z" id="Path" fill="#325CA7" mask="url(#mask-2)"></path>
            <path d="M19.3058437,2.48067187 C18.0794531,1.5380625 16.6659844,0.827296875 15.1304062,0.413390625 L15.1304062,6.6560625 L19.3058437,2.48067187 Z" id="Path" fill="#325CA7" mask="url(#mask-2)"></path>
            <path d="M4.69415625,21.5193281 C5.92054687,22.4619375 7.3340625,23.1727031 8.86959375,23.5866094 L8.86959375,17.3439844 L4.69415625,21.5193281 Z" id="Path" fill="#325CA7" mask="url(#mask-2)"></path>
            <path d="M8.86954687,0.413390625 C7.33401562,0.827296875 5.9205,1.5380625 4.69415625,2.480625 L8.86954687,6.65601562 L8.86954687,0.413390625 Z" id="Path" fill="#325CA7" mask="url(#mask-2)"></path>
            <path d="M15.1304531,23.5866094 C16.6659844,23.1727031 18.0795,22.4619375 19.3058437,21.519375 L15.1304531,17.3439844 L15.1304531,23.5866094 Z" id="Path" fill="#325CA7" mask="url(#mask-2)"></path>
            <path d="M17.3439844,15.1305 L21.519375,19.3059375 C22.4619375,18.0795937 23.17275,16.6660312 23.5866094,15.1305 L17.3439844,15.1305 Z" id="Path" fill="#325CA7" mask="url(#mask-2)"></path>
            <g id="Group" mask="url(#mask-2)" fill="#EB5241">
                <path d="M23.8984219,10.4347969 L13.5652969,10.4347969 L13.56525,10.4347969 L13.56525,0.101578125 C13.0528594,0.034875 12.5304844,0 12,0 C11.4694219,0 10.9471406,0.034875 10.4347969,0.101578125 L10.4347969,10.4347031 L10.4347969,10.43475 L0.101578125,10.43475 C0.034875,10.9471406 0,11.4695156 0,12 C0,12.5305781 0.034875,13.0528594 0.101578125,13.5652031 L10.4347031,13.5652031 L10.43475,13.5652031 L10.43475,23.8984219 C10.9471406,23.965125 11.4694219,24 12,24 C12.5304844,24 13.0528594,23.9651719 13.5652031,23.8984219 L13.5652031,13.5652969 L13.5652031,13.56525 L23.8984219,13.56525 C23.965125,13.0528594 24,12.5305781 24,12 C24,11.4695156 23.965125,10.9471406 23.8984219,10.4347969 Z" id="Path"></path>
                <path d="M15.1304531,15.1304531 L15.1304531,15.1304531 L20.4852656,20.4853125 C20.7315469,20.239125 20.9664844,19.9817344 21.1906406,19.7149219 L16.6061719,15.1304531 L15.1304531,15.1304531 L15.1304531,15.1304531 Z" id="Path"></path>
                <path d="M8.86954688,15.1305 L8.86945312,15.1305 L3.5146875,20.4852656 C3.760875,20.7315469 4.01826562,20.9664844 4.28507812,21.1906406 L8.86954688,16.6060781 L8.86954688,15.1305 Z" id="Path"></path>
                <path d="M8.86954688,8.86964063 L8.86954688,8.86954688 L3.51473438,3.5146875 C3.26845313,3.760875 3.03351563,4.01826562 2.80935938,4.28507813 L7.393875,8.86964063 L8.86954688,8.86964063 L8.86954688,8.86964063 Z" id="Path"></path>
                <path d="M15.1304531,8.86964063 L15.1304531,8.86964063 L20.4853125,3.51473437 C20.239125,3.26845312 19.9817344,3.03351562 19.7149219,2.80940625 L15.1304531,7.39392188 L15.1304531,8.86964063 L15.1304531,8.86964063 Z" id="Path"></path>
            </g>
            <rect id="Rectangle-Copy-6" fill="#325CA7" mask="url(#mask-2)" x="13.2" y="0" width="12" height="12"></rect>
            <rect id="Rectangle-Copy-5" fill="#FFFFFF" mask="url(#mask-2)" x="13.2" y="12" width="13.2" height="1.2"></rect>
            <rect id="Rectangle-Copy-19" fill="#FFFFFF" mask="url(#mask-2)" x="13.2" y="16.8" width="13.2" height="1.2"></rect>
            <g id="Group-3" mask="url(#mask-2)" fill="#FFFFFF">
                <g transform="translate(14.400000, 2.400000)">
                    <rect id="Rectangle-Copy-11" x="0" y="7.2" width="1.2" height="1.2"></rect>
                    <rect id="Rectangle-Copy-13" x="0" y="3.6" width="1.2" height="1.2"></rect>
                    <rect id="Rectangle-Copy-16" x="0" y="0" width="1.2" height="1.2"></rect>
                    <rect id="Rectangle-Copy-14" x="3.6" y="3.6" width="1.2" height="1.2"></rect>
                    <rect id="Rectangle-Copy-18" x="7.2" y="3.6" width="1.2" height="1.2"></rect>
                    <rect id="Rectangle-Copy-17" x="3.6" y="0" width="1.2" height="1.2"></rect>
                    <rect id="Rectangle-Copy-12" x="3.6" y="7.2" width="1.2" height="1.2"></rect>
                    <rect id="Rectangle-Copy-15" x="7.2" y="7.2" width="1.2" height="1.2"></rect>
                </g>
            </g>
            <rect id="Rectangle-Copy-8" fill="#EB5241" mask="url(#mask-2)" transform="translate(18.600000, 13.800000) scale(1, -1) translate(-18.600000, -13.800000) " x="12" y="13.2" width="13.2" height="1.2"></rect>
            <rect id="Rectangle-Copy-20" fill="#EB5241" mask="url(#mask-2)" transform="translate(18.600000, 18.600000) scale(1, -1) translate(-18.600000, -18.600000) " x="12" y="18" width="13.2" height="1.2"></rect>
            <rect id="Rectangle-Copy-7" fill="#FFFFFF" mask="url(#mask-2)" x="13.2" y="14.4" width="13.2" height="1.2"></rect>
            <rect id="Rectangle-Copy-21" fill="#FFFFFF" mask="url(#mask-2)" x="13.2" y="19.2" width="13.2" height="1.2"></rect>
            <rect id="Rectangle-Copy-10" fill="#EB5241" mask="url(#mask-2)" x="12" y="15.6" width="13.2" height="1.2"></rect>
            <rect id="Rectangle-Copy-22" fill="#EB5241" mask="url(#mask-2)" x="12" y="20.4" width="13.2" height="1.2"></rect>
            <rect id="Rectangle-Copy-9" fill="#FFFFFF" mask="url(#mask-2)" x="13.2" y="21.6" width="13.2" height="1.2"></rect>
            <rect id="Rectangle-Copy-23" fill="#EB5241" mask="url(#mask-2)" x="13.2" y="22.8" width="13.2" height="1.2"></rect>
        </g>
    </g>
</svg>